<?xml version="1.0" encoding="UTF-8"?>
<svg id="Layer_1" data-name="Layer 1" xmlns="http://www.w3.org/2000/svg" viewBox="0 0 738.91 45.54">
  <defs>
    <style>
      .cls-1 {
        fill: #ddd5c4;
      }
    </style>
  </defs>
  <g>
    <path class="cls-1" d="M58.39,42.99v-.76l1.22-.29v-7.62l-1.22-.29v-.76h4.53c1.54,0,2.74.39,3.6,1.17.86.78,1.29,1.96,1.29,3.52,0,1.04-.21,1.94-.61,2.69-.41.75-1,1.33-1.77,1.73s-1.69.61-2.76.61h-4.27ZM62.35,41.97c.63,0,1.16-.07,1.59-.2.43-.13.77-.36,1.03-.67s.44-.74.56-1.26c.11-.53.17-1.18.17-1.96,0-.72-.08-1.31-.23-1.77-.16-.46-.38-.82-.67-1.09-.29-.26-.63-.45-1.03-.55-.4-.11-.83-.16-1.31-.16-.2,0-.38,0-.55.01s-.32.03-.47.04v7.53c.1.02.23.04.41.05.17.02.34.02.51.02Z"/>
    <path class="cls-1" d="M71.05,43.16c-.51,0-.92-.09-1.25-.28-.32-.19-.55-.42-.7-.71s-.22-.6-.22-.94c0-.44.11-.81.33-1.11.22-.3.53-.54.92-.73.39-.18.83-.32,1.33-.4l1.52-.24v-1.04c0-.24-.04-.45-.11-.63-.08-.18-.2-.32-.38-.41-.18-.09-.43-.14-.75-.14-.21,0-.38.01-.51.04-.13.03-.22.05-.25.07l-.23,1.35s-.08.04-.2.08c-.12.04-.28.06-.48.06-.27,0-.49-.06-.66-.19-.17-.12-.26-.33-.26-.62,0-.33.11-.62.34-.86.22-.24.51-.44.85-.6s.69-.28,1.04-.36.67-.12.94-.12c.5,0,.92.07,1.28.21.35.14.62.35.81.64s.29.65.29,1.09v4.54l1.08.21v.69s-.1.04-.25.1-.34.11-.57.16-.48.08-.75.08c-.37,0-.63-.07-.78-.21s-.25-.3-.3-.5h-.09c-.11.09-.26.2-.45.32-.19.13-.41.23-.67.32-.26.09-.54.13-.86.13ZM71.89,41.97c.27,0,.5-.04.71-.11s.33-.12.39-.17v-2.03c-.58.04-1.04.12-1.36.23-.33.11-.56.26-.7.44-.13.18-.2.39-.2.63,0,.66.39.99,1.17.99Z"/>
    <path class="cls-1" d="M77.98,45.54c-.2,0-.41-.01-.63-.04-.22-.03-.41-.06-.57-.1v-.72l1.96-.5.79-2.15.48.71-.88.24-2.48-6.45-1.02-.21v-.78h3.89v.83l-1.01.13v.18l1.38,3.79.12.46.12-.48,1.33-3.77v-.18l-1.02-.15v-.83h3.27v.81l-.98.17-2.91,8.02c-.13.36-.34.62-.63.77-.29.15-.7.22-1.23.22Z"/>
    <path class="cls-1" d="M86.82,42.99v-.88l1.71-.23v-7.33h-1.81v-.96l2.58-.45h.99v8.75l1.73.23v.88h-5.19Z"/>
  </g>
  <g>
    <path class="cls-1" d="M206.41,42.99v-.76l1.21-.29v-7.62l-1.21-.29v-.76h4.53c1.54,0,2.74.39,3.6,1.17s1.29,1.96,1.29,3.52c0,1.04-.21,1.94-.62,2.69s-1,1.33-1.77,1.73c-.77.41-1.69.61-2.76.61h-4.27ZM210.37,41.97c.63,0,1.16-.07,1.59-.2s.77-.36,1.03-.67.44-.74.56-1.26c.11-.53.17-1.18.17-1.96,0-.72-.08-1.31-.23-1.77s-.38-.82-.67-1.09c-.29-.26-.63-.45-1.03-.55-.39-.11-.83-.16-1.31-.16-.2,0-.38,0-.55.01s-.32.03-.47.04v7.53c.1.02.23.04.41.05.17.02.34.02.51.02Z"/>
    <path class="cls-1" d="M219.07,43.16c-.51,0-.92-.09-1.25-.28-.32-.19-.55-.42-.7-.71-.15-.29-.22-.6-.22-.94,0-.44.11-.81.33-1.11s.53-.54.92-.73c.39-.18.83-.32,1.33-.4l1.51-.24v-1.04c0-.24-.04-.45-.11-.63s-.2-.32-.38-.41c-.18-.09-.43-.14-.75-.14-.21,0-.38.01-.51.04-.13.03-.21.05-.25.07l-.22,1.35s-.08.04-.2.08-.28.06-.48.06c-.27,0-.49-.06-.66-.19-.17-.12-.26-.33-.26-.62,0-.33.11-.62.34-.86s.51-.44.85-.6.69-.28,1.04-.36c.36-.08.67-.12.94-.12.5,0,.92.07,1.28.21.35.14.62.35.81.64.19.29.29.65.29,1.09v4.54l1.08.21v.69s-.1.04-.25.1c-.15.05-.34.11-.57.16-.23.05-.48.08-.75.08-.37,0-.63-.07-.78-.21-.15-.14-.25-.3-.3-.5h-.09c-.11.09-.26.2-.45.32-.19.13-.41.23-.67.32s-.54.13-.86.13ZM219.91,41.97c.27,0,.5-.04.71-.11s.33-.12.39-.17v-2.03c-.58.04-1.04.12-1.36.23-.33.11-.56.26-.7.44-.13.18-.2.39-.2.63,0,.66.39.99,1.17.99Z"/>
    <path class="cls-1" d="M226,45.54c-.2,0-.41-.01-.63-.04-.22-.03-.41-.06-.57-.1v-.72l1.96-.5.79-2.15.48.71-.88.24-2.48-6.45-1.02-.21v-.78h3.88v.83l-1,.13v.18l1.38,3.79.12.46.12-.48,1.33-3.77v-.18l-1.02-.15v-.83h3.27v.81l-.98.17-2.91,8.02c-.13.36-.34.62-.63.77-.29.15-.7.22-1.23.22Z"/>
    <path class="cls-1" d="M234.5,42.99v-.95l3.03-3.17c.38-.41.68-.78.91-1.1.22-.32.39-.64.5-.95.11-.31.17-.65.17-1.02,0-.55-.12-.96-.37-1.22-.25-.26-.72-.39-1.42-.39-.38,0-.68.03-.89.08-.21.05-.4.11-.55.17l-.29,1.54h-.93v-2.43c.16-.07.38-.15.67-.23s.62-.16.98-.22c.37-.06.74-.09,1.13-.09.83,0,1.5.1,2.01.3s.88.49,1.12.88.35.86.35,1.43c0,.49-.09.95-.27,1.37-.18.42-.45.85-.8,1.27-.36.42-.79.89-1.31,1.41l-1.94,1.89v.11h3.42l.36-1.4h.9v2.7h-6.79Z"/>
  </g>
  <g>
    <path class="cls-1" d="M355.13,42.99v-.76l1.22-.29v-7.62l-1.22-.29v-.76h4.53c1.54,0,2.74.39,3.6,1.17.86.78,1.29,1.96,1.29,3.52,0,1.04-.21,1.94-.61,2.69-.41.75-1,1.33-1.77,1.73s-1.69.61-2.76.61h-4.27ZM359.09,41.97c.63,0,1.16-.07,1.59-.2.43-.13.77-.36,1.03-.67s.44-.74.56-1.26c.11-.53.17-1.18.17-1.96,0-.72-.08-1.31-.23-1.77-.16-.46-.38-.82-.67-1.09-.29-.26-.63-.45-1.03-.55-.4-.11-.83-.16-1.31-.16-.2,0-.38,0-.55.01s-.32.03-.47.04v7.53c.1.02.23.04.41.05.17.02.34.02.51.02Z"/>
    <path class="cls-1" d="M367.79,43.16c-.51,0-.92-.09-1.25-.28-.32-.19-.55-.42-.7-.71s-.22-.6-.22-.94c0-.44.11-.81.33-1.11.22-.3.53-.54.92-.73.39-.18.83-.32,1.33-.4l1.52-.24v-1.04c0-.24-.04-.45-.11-.63-.08-.18-.2-.32-.38-.41-.18-.09-.43-.14-.75-.14-.21,0-.38.01-.51.04-.13.03-.22.05-.25.07l-.23,1.35s-.08.04-.2.08c-.12.04-.28.06-.48.06-.27,0-.49-.06-.66-.19-.17-.12-.26-.33-.26-.62,0-.33.11-.62.34-.86.22-.24.51-.44.85-.6s.69-.28,1.04-.36.67-.12.94-.12c.5,0,.92.07,1.28.21.35.14.62.35.81.64.19.29.29.65.29,1.09v4.54l1.08.21v.69s-.1.04-.25.1c-.15.05-.34.11-.57.16-.23.05-.48.08-.75.08-.37,0-.63-.07-.78-.21s-.25-.3-.3-.5h-.09c-.11.09-.26.2-.45.32-.19.13-.41.23-.67.32-.26.09-.54.13-.86.13ZM368.63,41.97c.27,0,.5-.04.71-.11s.33-.12.39-.17v-2.03c-.58.04-1.04.12-1.36.23-.33.11-.56.26-.7.44-.13.18-.2.39-.2.63,0,.66.39.99,1.17.99Z"/>
    <path class="cls-1" d="M374.72,45.54c-.2,0-.41-.01-.63-.04-.22-.03-.41-.06-.57-.1v-.72l1.96-.5.79-2.15.48.71-.88.24-2.48-6.45-1.02-.21v-.78h3.88v.83l-1,.13v.18l1.38,3.79.12.46.12-.48,1.33-3.77v-.18l-1.02-.15v-.83h3.27v.81l-.98.17-2.91,8.02c-.13.36-.34.62-.63.77-.29.15-.7.22-1.23.22Z"/>
    <path class="cls-1" d="M385.94,43.2c-.49,0-.92-.04-1.3-.13-.38-.08-.7-.18-.96-.3-.26-.11-.46-.21-.58-.29l.13-2.24h1.02l.17,1.32c.07.04.18.1.33.17.15.08.32.14.52.2.2.06.4.09.6.09.7,0,1.2-.14,1.51-.43s.46-.75.46-1.39c0-.42-.1-.76-.31-1.01-.21-.26-.49-.44-.85-.56-.36-.12-.77-.18-1.23-.18h-.57l-.27-.51v-.6h.72c.39,0,.74-.07,1.06-.2.32-.13.57-.32.77-.58.2-.26.29-.57.29-.94,0-.5-.13-.86-.38-1.08s-.69-.33-1.31-.33c-.3,0-.56.02-.77.08-.21.05-.37.09-.48.13l-.12,1.32h-.96l-.13-2.22c.25-.1.6-.21,1.06-.33.45-.12,1.02-.18,1.69-.18s1.25.08,1.7.23.79.4,1.02.72c.23.33.34.75.34,1.27,0,.4-.08.75-.25,1.06-.17.31-.38.56-.63.77s-.51.38-.78.5v.06c.25.07.52.16.79.28.27.11.5.27.72.46.21.19.38.44.51.73s.19.63.19,1.02c0,.55-.1,1.02-.31,1.42-.21.39-.48.71-.83.95-.35.24-.75.42-1.19.53-.44.12-.89.17-1.37.17Z"/>
  </g>
  <g>
    <path class="cls-1" d="M501.34,42.99v-.76l1.22-.29v-7.62l-1.22-.29v-.76h4.53c1.54,0,2.74.39,3.6,1.17.86.78,1.29,1.96,1.29,3.52,0,1.04-.21,1.94-.61,2.69-.41.75-1,1.33-1.77,1.73-.77.41-1.69.61-2.76.61h-4.28ZM505.3,41.97c.63,0,1.16-.07,1.59-.2.43-.13.77-.36,1.03-.67s.44-.74.55-1.26c.12-.53.17-1.18.17-1.96,0-.72-.08-1.31-.23-1.77-.16-.46-.38-.82-.67-1.09-.29-.26-.63-.45-1.03-.55-.4-.11-.83-.16-1.31-.16-.2,0-.38,0-.55.01s-.32.03-.47.04v7.53c.1.02.24.04.41.05.17.02.34.02.51.02Z"/>
    <path class="cls-1" d="M514,43.16c-.51,0-.92-.09-1.25-.28-.32-.19-.55-.42-.7-.71-.14-.29-.22-.6-.22-.94,0-.44.11-.81.33-1.11.22-.3.53-.54.92-.73.39-.18.83-.32,1.33-.4l1.52-.24v-1.04c0-.24-.04-.45-.11-.63-.08-.18-.2-.32-.38-.41s-.43-.14-.75-.14c-.21,0-.38.01-.51.04-.13.03-.22.05-.25.07l-.23,1.35s-.08.04-.2.08c-.12.04-.28.06-.48.06-.27,0-.49-.06-.66-.19s-.25-.33-.25-.62c0-.33.11-.62.34-.86.22-.24.51-.44.85-.6s.69-.28,1.04-.36c.35-.08.67-.12.94-.12.5,0,.92.07,1.28.21.35.14.62.35.81.64.19.29.29.65.29,1.09v4.54l1.08.21v.69s-.11.04-.25.1c-.15.05-.34.11-.57.16-.23.05-.48.08-.75.08-.37,0-.63-.07-.78-.21-.15-.14-.25-.3-.3-.5h-.09c-.11.09-.26.2-.45.32-.19.13-.41.23-.67.32-.26.09-.54.13-.86.13ZM514.84,41.97c.27,0,.5-.04.71-.11s.33-.12.39-.17v-2.03c-.58.04-1.04.12-1.37.23-.33.11-.56.26-.7.44-.13.18-.2.39-.2.63,0,.66.39.99,1.17.99Z"/>
    <path class="cls-1" d="M520.93,45.54c-.2,0-.41-.01-.63-.04-.22-.03-.41-.06-.57-.1v-.72l1.96-.5.79-2.15.48.71-.88.24-2.47-6.45-1.02-.21v-.78h3.89v.83l-1.01.13v.18l1.38,3.79.12.46.12-.48,1.33-3.77v-.18l-1.02-.15v-.83h3.27v.81l-.97.17-2.91,8.02c-.13.36-.34.62-.63.77-.29.15-.7.22-1.23.22Z"/>
    <path class="cls-1" d="M532.03,42.99v-.79l1.28-.25v-1.52h-3.87l-.5-.97,4.86-6.75,1.2.42v6.06h1.26v1.24h-1.26v1.52l1.26.25v.79h-4.23ZM530.65,39.18h2.66v-3.9s-.04-.03-.04-.03l-.09.23-2.54,3.57v.14Z"/>
  </g>
  <g>
    <path class="cls-1" d="M647.68,42.99v-.76l1.22-.29v-7.62l-1.22-.29v-.76h4.53c1.54,0,2.74.39,3.6,1.17.86.78,1.29,1.96,1.29,3.52,0,1.04-.21,1.94-.61,2.69-.41.75-1,1.33-1.77,1.73-.77.41-1.69.61-2.76.61h-4.28ZM651.64,41.97c.63,0,1.16-.07,1.59-.2.43-.13.77-.36,1.03-.67s.44-.74.55-1.26c.12-.53.17-1.18.17-1.96,0-.72-.08-1.31-.23-1.77-.16-.46-.38-.82-.67-1.09-.29-.26-.63-.45-1.03-.55-.4-.11-.83-.16-1.31-.16-.2,0-.38,0-.55.01s-.32.03-.47.04v7.53c.1.02.24.04.41.05.17.02.34.02.51.02Z"/>
    <path class="cls-1" d="M660.34,43.16c-.51,0-.92-.09-1.25-.28-.32-.19-.55-.42-.7-.71-.14-.29-.22-.6-.22-.94,0-.44.11-.81.33-1.11.22-.3.53-.54.92-.73.39-.18.83-.32,1.33-.4l1.52-.24v-1.04c0-.24-.04-.45-.11-.63-.08-.18-.2-.32-.38-.41s-.43-.14-.75-.14c-.21,0-.38.01-.51.04-.13.03-.22.05-.25.07l-.23,1.35s-.08.04-.2.08c-.12.04-.28.06-.48.06-.27,0-.49-.06-.66-.19s-.25-.33-.25-.62c0-.33.11-.62.34-.86.22-.24.51-.44.85-.6s.69-.28,1.04-.36c.35-.08.67-.12.94-.12.5,0,.92.07,1.28.21.35.14.62.35.81.64.19.29.29.65.29,1.09v4.54l1.08.21v.69s-.11.04-.25.1c-.15.05-.34.11-.57.16-.23.05-.48.08-.75.08-.37,0-.63-.07-.78-.21-.15-.14-.25-.3-.3-.5h-.09c-.11.09-.26.2-.45.32-.19.13-.41.23-.67.32-.26.09-.54.13-.86.13ZM661.18,41.97c.27,0,.5-.04.71-.11s.33-.12.39-.17v-2.03c-.58.04-1.04.12-1.37.23-.33.11-.56.26-.7.44-.13.18-.2.39-.2.63,0,.66.39.99,1.17.99Z"/>
    <path class="cls-1" d="M667.27,45.54c-.2,0-.41-.01-.63-.04-.22-.03-.41-.06-.57-.1v-.72l1.96-.5.79-2.15.48.71-.88.24-2.47-6.45-1.02-.21v-.78h3.89v.83l-1.01.13v.18l1.38,3.79.12.46.12-.48,1.33-3.77v-.18l-1.02-.15v-.83h3.27v.81l-.97.17-2.91,8.02c-.13.36-.34.62-.63.77-.29.15-.7.22-1.23.22Z"/>
    <path class="cls-1" d="M678.4,43.2c-.71,0-1.29-.07-1.75-.22-.46-.14-.79-.28-1.01-.41l.12-2.33h.96l.18,1.42s.09.05.23.12c.13.07.3.13.52.2.22.06.49.09.81.09.65,0,1.11-.17,1.39-.53.28-.35.41-.86.41-1.53,0-.45-.09-.82-.28-1.11-.19-.29-.47-.51-.86-.66-.39-.15-.91-.22-1.57-.22h-1.54v-4.75h5.49v1.48h-4.32v2.1h.88c.62,0,1.17.05,1.67.15.49.1.91.26,1.26.48s.62.51.79.88c.18.37.27.81.27,1.34,0,.77-.15,1.42-.46,1.94-.3.52-.73.91-1.27,1.17-.55.26-1.18.39-1.91.39Z"/>
  </g>
  <path class="cls-1" d="M.85,43.84c-.47,0-.85-.38-.85-.85V.85c0-.47.38-.85.85-.85s.85.38.85.85v42.15c0,.47-.38.85-.85.85Z"/>
  <path class="cls-1" d="M147.19,43.84c-.47,0-.85-.38-.85-.85V.85c0-.47.38-.85.85-.85s.85.38.85.85v42.15c0,.47-.38.85-.85.85Z"/>
  <path class="cls-1" d="M443.13,43.84c-.47,0-.85-.38-.85-.85V.85c0-.47.38-.85.85-.85s.85.38.85.85v42.15c0,.47-.38.85-.85.85Z"/>
  <path class="cls-1" d="M295.16,43.84c-.47,0-.85-.38-.85-.85V.85c0-.47.38-.85.85-.85s.85.38.85.85v42.15c0,.47-.38.85-.85.85Z"/>
  <path class="cls-1" d="M738.07,43.84c-.47,0-.85-.38-.85-.85V.85c0-.47.38-.85.85-.85s.85.38.85.85v42.15c0,.47-.38.85-.85.85Z"/>
  <path class="cls-1" d="M591.1,43.84c-.47,0-.85-.38-.85-.85V.85c0-.47.38-.85.85-.85s.85.38.85.85v42.15c0,.47-.38.85-.85.85Z"/>
</svg>