<?xml version="1.0" encoding="iso-8859-1"?>
<!-- Generator: Adobe Illustrator 29.8.5, SVG Export Plug-In . SVG Version: 9.03 Build 0)  -->
<svg version="1.1" xmlns="http://www.w3.org/2000/svg" xmlns:xlink="http://www.w3.org/1999/xlink" x="0px" y="0px"
	 viewBox="0 0 175.272 175.272" style="enable-background:new 0 0 175.272 175.272;" xml:space="preserve">
<g id="Live_x5F_wind_x5F_icon">
	<g>
		<g>
			<path style="fill:#DDD5C4;" d="M140.775,7c15.186,0,27.497,12.311,27.497,27.497v106.278c0,15.186-12.311,27.497-27.497,27.497
				H34.497C19.311,168.272,7,155.961,7,140.775V34.497C7,19.311,19.311,7,34.497,7H140.775 M140.775,0H34.497
				C15.475,0,0,15.475,0,34.497v106.278c0,19.022,15.475,34.497,34.497,34.497h106.278c19.022,0,34.497-15.475,34.497-34.497V34.497
				C175.272,15.475,159.797,0,140.775,0L140.775,0z"/>
		</g>
		<g>
			<g>
				<g>
					<path style="fill:#DDD5C4;" d="M56.076,83.732H27.721c-1.648,0-2.984-1.336-2.984-2.984s1.336-2.984,2.984-2.984h28.355
						c8.492,0,15.041-2.248,18.939-6.501c3.897-4.253,4.342-9.435,4.027-13.034c-0.666-7.599-7.404-13.22-14.992-12.578
						c-5.752,0.504-10.022,5.593-9.518,11.345c0.181,2.072,1.158,3.948,2.749,5.284c1.592,1.335,3.613,1.97,5.679,1.791
						c1.668-0.15,3.09,1.072,3.233,2.711c0.144,1.642-1.071,3.09-2.711,3.233c-3.654,0.325-7.223-0.803-10.037-3.164
						c-2.813-2.36-4.538-5.676-4.857-9.335c-0.791-9.029,5.912-17.018,14.942-17.81c10.848-0.962,20.503,7.126,21.456,18.002
						c0.593,6.773-1.387,13.019-5.571,17.585C74.356,80.815,66.286,83.732,56.076,83.732z"/>
				</g>
			</g>
			<g>
				<g>
					<path style="fill:#DDD5C4;" d="M105.378,97.499H35.625c-1.648,0-2.984-1.336-2.984-2.984s1.336-2.984,2.984-2.984h69.753
						c13.016,0,23.142-3.543,29.284-10.247c4.898-5.345,7.206-12.744,6.498-20.834c-1.074-12.283-11.925-21.378-24.229-20.331
						c-4.601,0.404-8.771,2.573-11.74,6.112c-2.969,3.539-4.382,8.023-3.98,12.626c0.635,7.272,7.057,12.649,14.342,12.034
						c1.674-0.17,3.09,1.071,3.233,2.711c0.144,1.642-1.071,3.09-2.711,3.233c-5.109,0.44-10.091-1.122-14.02-4.42
						c-3.931-3.297-6.341-7.929-6.788-13.038c-0.542-6.191,1.359-12.221,5.353-16.981s9.603-7.679,15.793-8.221
						c7.531-0.663,14.883,1.657,20.68,6.521s9.354,11.695,10.012,19.234c0.855,9.776-2,18.792-8.042,25.386
						C131.76,93.285,120.112,97.499,105.378,97.499z"/>
				</g>
			</g>
			<g>
				<g>
					<path style="fill:#DDD5C4;" d="M94.327,145.545c-0.522,0-1.046-0.023-1.576-0.07c-3.973-0.348-7.573-2.222-10.136-5.277
						c-2.563-3.055-3.784-6.925-3.435-10.899c0.291-3.336,1.866-6.361,4.432-8.514c2.567-2.153,5.822-3.182,9.155-2.886
						c1.641,0.143,2.856,1.591,2.711,3.233c-0.143,1.642-1.592,2.879-3.233,2.711c-1.747-0.162-3.453,0.383-4.798,1.514
						c-1.345,1.128-2.171,2.714-2.324,4.464c-0.431,4.923,3.224,9.279,8.149,9.71c3.186,0.274,6.279-0.698,8.723-2.751
						c2.446-2.051,3.947-4.933,4.225-8.114c0.284-3.253-0.086-7.905-3.466-11.594c-3.229-3.524-8.664-5.386-15.722-5.386H27.721
						c-1.648,0-2.984-1.336-2.984-2.984s1.336-2.984,2.984-2.984h59.312c8.775,0,15.733,2.532,20.122,7.321
						c3.781,4.127,5.561,9.862,5.01,16.149C111.349,138.503,103.507,145.545,94.327,145.545z"/>
				</g>
			</g>
		</g>
	</g>
</g>
<g id="Layer_1">
</g>
</svg>
