<?xml version="1.0" encoding="iso-8859-1"?>
<!-- Generator: Adobe Illustrator 29.8.5, SVG Export Plug-In . SVG Version: 9.03 Build 0)  -->
<svg version="1.1" xmlns="http://www.w3.org/2000/svg" xmlns:xlink="http://www.w3.org/1999/xlink" x="0px" y="0px"
	 viewBox="0 0 175.272 175.272" style="enable-background:new 0 0 175.272 175.272;" xml:space="preserve">
<g id="Swell_x5F_forecast_x5F_icon">
	<g>
		<g>
			<path style="fill:#DDD5C4;" d="M140.775,7c15.186,0,27.497,12.311,27.497,27.497v106.278c0,15.186-12.311,27.497-27.497,27.497
				H34.497C19.311,168.272,7,155.961,7,140.775V34.497C7,19.311,19.311,7,34.497,7H140.775 M140.775,0H34.497
				C15.475,0,0,15.475,0,34.497v106.278c0,19.022,15.475,34.497,34.497,34.497h106.278c19.022,0,34.497-15.475,34.497-34.497V34.497
				C175.272,15.475,159.797,0,140.775,0L140.775,0z"/>
		</g>
		<g>
			<g>
				<g>
					<path style="fill:#DDD5C4;" d="M143.122,70.243H39.661c-1.648,0-2.984-1.336-2.984-2.984s1.336-2.984,2.984-2.984h103.46
						c1.648,0,2.984,1.336,2.984,2.984S144.769,70.243,143.122,70.243z"/>
				</g>
			</g>
			<g>
				<g>
					<path style="fill:#DDD5C4;" d="M143.122,52.664H39.661c-1.648,0-2.984-1.336-2.984-2.984s1.336-2.984,2.984-2.984h103.46
						c1.648,0,2.984,1.336,2.984,2.984S144.769,52.664,143.122,52.664z"/>
				</g>
			</g>
			<g>
				<g>
					<path style="fill:#DDD5C4;" d="M143.122,91.804H39.661c-1.648,0-2.984-1.336-2.984-2.984s1.336-2.984,2.984-2.984h103.46
						c1.648,0,2.984,1.336,2.984,2.984S144.769,91.804,143.122,91.804z"/>
				</g>
			</g>
			<g>
				<g>
					<path style="fill:#DDD5C4;" d="M143.122,128.576H39.661c-1.648,0-2.984-1.336-2.984-2.984s1.336-2.984,2.984-2.984h103.46
						c1.648,0,2.984,1.336,2.984,2.984S144.769,128.576,143.122,128.576z"/>
				</g>
			</g>
			<g>
				<g>
					<path style="fill:#DDD5C4;" d="M108.527,91.804c-13.534,0-24.546-11.011-24.546-24.545h5.968
						c0,10.244,8.334,18.577,18.578,18.577V91.804z"/>
				</g>
			</g>
			<g>
				<g>
					<path style="fill:#DDD5C4;" d="M123.124,70.243c-11.338,0-20.562-9.225-20.562-20.563h5.968
						c0,8.048,6.547,14.596,14.595,14.596V70.243z"/>
				</g>
			</g>
			<g>
				<g>
					<path style="fill:#DDD5C4;" d="M104.703,128.576c-21.921,0-39.755-17.834-39.755-39.755h5.968
						c0,18.631,15.157,33.788,33.788,33.788V128.576z"/>
				</g>
			</g>
		</g>
	</g>
</g>
<g id="Layer_1">
</g>
</svg>
