<?xml version="1.0" encoding="UTF-8"?>
<svg id="Layer_1" xmlns="http://www.w3.org/2000/svg" viewBox="0 0 749.05 758.7">
  <path d="M523.3,285.23c-139.36-6.41-254.13,108.36-247.73,247.73,5.59,121.51,103.99,219.9,225.49,225.49,139.36,6.41,254.13-108.36,247.73-247.73-5.59-121.51-103.99-219.9-225.49-225.49ZM512.19,322.9c109.7,0,198.94,89.25,198.94,198.94,0,10.2-.78,20.22-2.28,30.01-.75,4.89-5.85,7.91-10.49,6.19-42.95-15.95-72.66-46.55-101.57-76.31-33.17-34.16-67.46-69.48-118.73-75.58-70.19-8.35-116.4,37.83-150.14,71.55-.53.53-1.07,1.07-1.6,1.6-3.19,3.18-8.56.16-7.5-4.22,21.09-87.2,99.76-152.18,193.35-152.18ZM314.53,544.22c-.28-2.44.89-4.8,2.9-6.21,12.57-8.8,24.66-20.85,37.31-33.5,32.9-32.89,66.9-66.9,118.85-60.72,37.91,4.51,64.83,32.24,96,64.34,31.55,32.5,66.64,68.63,119.79,86.99,3.71,1.28,5.47,5.5,3.84,9.08-1.66,3.62-3.42,7.19-5.29,10.69-1.36,2.56-4.28,3.91-7.12,3.34-65.38-13.04-99.15-39.96-129.26-63.97-26.16-20.87-50.87-40.58-88.83-43.82-50.15-4.27-83.76,17.9-113.42,37.46-7.79,5.14-15.38,10.13-22.98,14.45-3.94,2.24-8.95-.12-9.77-4.57-.83-4.47-1.5-9-2.02-13.57ZM371.36,662.17c-2.14-2.15-1.32-5.77,1.55-6.78,2.02-.71,4.02-1.42,6.01-2.14,19.81-7.11,38.52-13.83,62.31-10.01,19.13,3.07,33.19,11.51,51,22.19,21.18,12.7,45.85,27.5,84.97,36.38,4.01.91,4.37,6.5.49,7.86-20.52,7.18-42.56,11.1-65.5,11.1-54.98,0-104.79-22.44-140.83-58.62ZM644.93,669.83c-1.3,1.17-3.05,1.78-4.8,1.72-68.32-2.61-100.21-21.71-128.4-38.62-19.62-11.77-38.14-22.88-64.49-27.12-33.41-5.37-59.88,4.12-81.14,11.76-6.74,2.42-13,4.65-18.92,6.27-2.99.82-6.11-.56-7.65-3.25-2.17-3.79-4.2-7.66-6.12-11.6-1.61-3.31-.29-7.31,2.99-8.97,11.92-6.02,22.96-13.3,33.79-20.44,26.89-17.74,52.29-34.49,89.31-31.33,26.52,2.27,44.1,16.28,68.41,35.68,28.55,22.77,62.8,50.06,122.76,66.21,5.03,1.35,6.72,7.59,3.07,11.3-2.85,2.89-5.79,5.69-8.81,8.4Z"/>
</svg>