<?xml version="1.0" encoding="UTF-8"?>
<svg id="Layer_1" xmlns="http://www.w3.org/2000/svg" viewBox="0 0 977.12 130.93">
  <g>
    <path d="M79.06,90.49h-40.44l-8.62,25.69,13.76,3.48v9.61H0v-9.61l13.59-3.48L52.37,8.29h20.39l38.45,107.89,13.26,3.48v9.61h-50.55v-9.61l13.59-3.48-8.45-25.69ZM42.76,78.39h32.32l-15.41-48.23h-.66l-16.24,48.23Z"/>
    <path d="M139.22,12.6l-12.76-3.15V0h33.81v116.68l12.76,3.15v9.45h-46.57v-9.45l12.76-3.15V12.6Z"/>
    <path d="M194.74,52.21l-12.76-3.15v-9.28h28.84l3.65,16.57h.66c3.2-5.64,7.48-10.08,12.84-13.34,5.36-3.26,11.08-4.89,17.15-4.89,4.64,0,8.7.86,12.18,2.57,3.48,1.71,6.05,3.84,7.71,6.38,1.77,2.76,3.2,6.41,4.31,10.94,3.53-6.3,8.12-11.19,13.76-14.67s11.66-5.22,18.07-5.22c4.42,0,8.4.86,11.93,2.57,3.54,1.71,6.24,4.06,8.12,7.04.99,1.55,1.82,3.42,2.49,5.64.66,2.21,1.21,4.95,1.66,8.2.44,3.26.75,7.1.91,11.52s.25,9.61.25,15.58v28.17l12.76,3.15v9.28h-44.91v-9.28l11.1-3.15v-31.99c0-3.53-.06-6.6-.17-9.2-.11-2.59-.28-4.86-.5-6.8-.22-1.93-.5-3.56-.83-4.89s-.72-2.49-1.16-3.48c-1.11-2.65-2.57-4.5-4.39-5.55-1.82-1.05-3.73-1.57-5.72-1.57-2.87,0-5.42.39-7.62,1.16-2.21.77-4.37,2.1-6.46,3.98-2.43,2.21-4.23,4.78-5.39,7.71-1.16,2.93-1.85,6.71-2.07,11.35v39.28l11.1,3.15v9.28h-43.26v-9.28l11.1-3.15v-31.99c0-3.53-.06-6.6-.17-9.2-.11-2.59-.28-4.86-.5-6.8-.22-1.93-.5-3.56-.83-4.89-.33-1.33-.72-2.49-1.16-3.48-1.11-2.65-2.57-4.5-4.39-5.55-1.82-1.05-3.73-1.57-5.72-1.57-2.87,0-5.41.39-7.62,1.16-2.21.77-4.37,2.1-6.46,3.98-2.43,2.21-4.23,4.78-5.39,7.71-1.16,2.93-1.85,6.71-2.07,11.35v39.28l11.1,3.15v9.28h-44.91v-9.28l12.76-3.15V52.21Z"/>
    <path d="M346.72,109.72c0-4.53,1.02-8.53,3.07-12.02,2.04-3.48,5.19-6.55,9.45-9.2,4.25-2.65,9.67-4.92,16.24-6.79,6.57-1.88,14.39-3.54,23.45-4.97-.55-5.52-1.19-9.75-1.91-12.68-.72-2.93-1.69-5.5-2.9-7.71-1.55-2.54-3.34-4.58-5.39-6.13-2.05-1.55-4.67-2.32-7.87-2.32-2.32,0-4.45.44-6.38,1.33-1.93.89-3.23,2.1-3.89,3.65,1.55.89,2.62,2.13,3.23,3.73.61,1.6.91,3.01.91,4.22,0,2.76-1.22,5.22-3.65,7.38-2.43,2.15-5.36,3.23-8.78,3.23s-6.27-1.13-8.2-3.4c-1.93-2.26-2.9-5.11-2.9-8.53s.94-6.46,2.82-9.12c1.88-2.65,4.36-4.89,7.46-6.71,3.09-1.82,6.55-3.2,10.36-4.14,3.81-.94,7.65-1.41,11.52-1.41,5.19,0,9.86.75,14,2.24,4.14,1.49,7.48,3.34,10.03,5.55,8.73,7.73,13.09,20,13.09,36.79v21.55c0,5.53.36,9.31,1.08,11.35.72,2.05,2.29,3.07,4.72,3.07h7.46v7.46c-10.17,3.2-17.84,4.81-23.04,4.81-1.88,0-3.4-.28-4.56-.83s-2.07-1.49-2.73-2.82c-.66-1.33-1.13-3.15-1.41-5.47-.28-2.32-.41-5.3-.41-8.95h-.66c-3.43,5.63-7.96,10.06-13.59,13.26-5.64,3.2-11.71,4.81-18.23,4.81-6.96,0-12.43-1.88-16.41-5.64-3.98-3.75-5.97-8.95-5.97-15.58ZM379.2,118.83c2.32,0,4.89-.75,7.71-2.24,2.82-1.49,5.28-3.67,7.38-6.55,1.21-1.55,2.37-3.75,3.48-6.63,1.1-2.87,1.66-6.3,1.66-10.28,0-1.33-.06-2.79-.17-4.39-.11-1.6-.28-3.17-.5-4.72-5.75,1.22-10.52,2.51-14.34,3.89-3.81,1.38-6.88,2.9-9.2,4.56s-3.98,3.56-4.97,5.72c-.99,2.15-1.49,4.61-1.49,7.37,0,4.86,1.1,8.29,3.31,10.28,2.21,1.99,4.58,2.98,7.13,2.98Z"/>
    <path d="M450.63,52.21l-12.76-3.15v-9.28h28.84l3.65,16.57h.66c3.31-5.64,7.76-10.08,13.34-13.34,5.58-3.26,11.63-4.89,18.15-4.89,4.42,0,8.4.77,11.93,2.32,3.54,1.55,6.35,3.76,8.45,6.63,2.21,3.09,3.78,7.43,4.72,13.01.94,5.58,1.41,13.12,1.41,22.62v34.14l12.76,3.15v9.28h-44.92v-9.28l11.1-3.15v-31.99c0-6.63-.19-11.79-.58-15.5-.39-3.7-1.08-6.66-2.07-8.87-1.22-2.87-2.87-4.86-4.97-5.97-2.1-1.1-4.59-1.66-7.46-1.66-5.42,0-10,1.77-13.76,5.3-4.53,4.2-7.02,10.66-7.46,19.39v39.28l11.1,3.15v9.28h-44.91v-9.28l12.76-3.15V52.21Z"/>
    <path d="M549.41,109.72c0-4.53,1.02-8.53,3.07-12.02,2.04-3.48,5.19-6.55,9.45-9.2,4.25-2.65,9.67-4.92,16.24-6.79,6.57-1.88,14.39-3.54,23.45-4.97-.55-5.52-1.19-9.75-1.91-12.68-.72-2.93-1.69-5.5-2.9-7.71-1.55-2.54-3.34-4.58-5.39-6.13-2.05-1.55-4.67-2.32-7.87-2.32-2.32,0-4.45.44-6.38,1.33-1.93.89-3.23,2.1-3.89,3.65,1.55.89,2.62,2.13,3.23,3.73.61,1.6.91,3.01.91,4.22,0,2.76-1.22,5.22-3.65,7.38-2.43,2.15-5.36,3.23-8.78,3.23s-6.27-1.13-8.2-3.4c-1.93-2.26-2.9-5.11-2.9-8.53s.94-6.46,2.82-9.12c1.88-2.65,4.36-4.89,7.46-6.71,3.09-1.82,6.55-3.2,10.36-4.14,3.81-.94,7.65-1.41,11.52-1.41,5.19,0,9.86.75,14,2.24,4.14,1.49,7.48,3.34,10.03,5.55,8.73,7.73,13.09,20,13.09,36.79v21.55c0,5.53.36,9.31,1.08,11.35.72,2.05,2.29,3.07,4.72,3.07h7.46v7.46c-10.17,3.2-17.84,4.81-23.04,4.81-1.88,0-3.4-.28-4.56-.83s-2.07-1.49-2.73-2.82c-.66-1.33-1.13-3.15-1.41-5.47-.28-2.32-.41-5.3-.41-8.95h-.66c-3.43,5.63-7.96,10.06-13.59,13.26-5.64,3.2-11.71,4.81-18.23,4.81-6.96,0-12.43-1.88-16.41-5.64-3.98-3.75-5.97-8.95-5.97-15.58ZM581.9,118.83c2.32,0,4.89-.75,7.71-2.24,2.82-1.49,5.28-3.67,7.38-6.55,1.21-1.55,2.37-3.75,3.48-6.63,1.1-2.87,1.66-6.3,1.66-10.28,0-1.33-.06-2.79-.17-4.39-.11-1.6-.28-3.17-.5-4.72-5.75,1.22-10.52,2.51-14.34,3.89-3.81,1.38-6.88,2.9-9.2,4.56s-3.98,3.56-4.97,5.72c-.99,2.15-1.49,4.61-1.49,7.37,0,4.86,1.1,8.29,3.31,10.28,2.21,1.99,4.58,2.98,7.13,2.98Z"/>
    <path d="M685.15,38.12c5.08,0,9.78.61,14.09,1.82,4.31,1.22,8.04,2.96,11.19,5.22,3.15,2.26,5.61,5,7.38,8.2,1.77,3.21,2.65,6.74,2.65,10.61,0,4.97-1.33,8.76-3.98,11.35-2.65,2.6-5.91,3.89-9.78,3.89-2.21,0-4.03-.36-5.47-1.08-1.44-.72-2.63-1.66-3.56-2.82-.94-1.16-1.6-2.46-1.99-3.89-.39-1.43-.58-2.87-.58-4.31,0-2.76.69-5.14,2.07-7.13,1.38-1.99,3.45-3.42,6.22-4.31-1.55-1.99-3.87-3.59-6.96-4.81-3.09-1.21-6.58-1.82-10.44-1.82-3.54,0-6.66.61-9.36,1.82-2.71,1.22-5,3.18-6.88,5.88-1.88,2.71-3.31,6.3-4.31,10.77-.99,4.47-1.49,9.97-1.49,16.49,0,5.97.39,10.66,1.16,14.09.77,3.43,1.82,6.41,3.15,8.95,1.77,3.21,4.03,5.72,6.8,7.54,2.76,1.82,6.3,2.73,10.61,2.73,2.21,0,4.56-.27,7.04-.83,2.49-.55,4.92-1.35,7.29-2.4,2.37-1.05,4.64-2.4,6.8-4.06s4.06-3.65,5.72-5.97l8.95,6.96c-5.19,7.18-11.19,12.29-17.98,15.33-6.8,3.04-14.06,4.56-21.79,4.56-8.29,0-15.25-1.57-20.88-4.72-5.64-3.15-10.06-7.76-13.26-13.84-1.88-3.54-3.34-7.6-4.39-12.18-1.05-4.58-1.57-9.53-1.57-14.83,0-7.18.99-13.67,2.98-19.47,1.99-5.8,4.83-10.77,8.54-14.92,3.7-4.14,8.26-7.32,13.67-9.53,5.41-2.21,11.54-3.32,18.4-3.32Z"/>
  </g>
  <g>
    <path d="M757.56,56.03l.98,4.82h.41l.98-4.82,9.57-35.16h5.89l9.89,35.16.98,4.82h.33l.98-4.82,8.18-29.44-5.32-1.55v-3.35h15.54v3.35l-4.42,1.55-12.18,40.07h-8.42l-9.73-31.89-9.49,31.89h-8.42l-12.51-40.07-4.33-1.55v-3.35h18.32v3.35l-5.64,1.55,8.42,29.44Z"/>
    <path d="M849.72,43.36c0,3.6-.53,6.98-1.59,10.14-1.06,3.16-2.55,5.78-4.46,7.85-3.22,3.54-7.96,5.31-14.23,5.31s-10.77-1.72-13.98-5.15c-1.85-2.02-3.28-4.51-4.29-7.48-1.01-2.97-1.51-6.2-1.51-9.69s.52-7,1.55-10.22c1.03-3.21,2.53-5.86,4.5-7.93,1.74-1.85,3.76-3.2,6.05-4.05s4.96-1.27,8.01-1.27,5.7.42,8.1,1.27c2.4.84,4.42,2.14,6.05,3.88,1.91,2.02,3.35,4.54,4.33,7.56.98,3.03,1.47,6.29,1.47,9.77ZM818.4,43.44c0,6.54.98,11.42,2.94,14.64.93,1.42,2.03,2.49,3.31,3.23,1.28.74,2.96,1.1,5.03,1.1,3.76,0,6.57-1.28,8.42-3.84.98-1.42,1.7-3.38,2.17-5.89.46-2.51.69-5.4.69-8.67,0-6.49-.98-11.34-2.94-14.55-.93-1.42-2.04-2.49-3.35-3.23-1.31-.74-3-1.1-5.07-1.1-3.82,0-6.57,1.25-8.26,3.76-1.96,3.05-2.94,7.9-2.94,14.56Z"/>
    <path d="M881.04,26.43c-.49-.33-1.04-.49-1.64-.49-1.04,0-2.13.64-3.27,1.92-1.15,1.28-2.15,2.9-3.03,4.87-.76,1.85-1.36,3.88-1.8,6.09-.44,2.21-.65,4.48-.65,6.83v15.29l8.83,1.55v3.35h-23.06v-3.35l6.3-1.55V26.6l-6.3-1.55v-3.35h11.78l1.8,10.8h.33c1.25-3.71,2.93-6.57,5.03-8.59,2.1-2.02,4.46-3.03,7.07-3.03,2.13,0,3.9.67,5.31,2,1.42,1.34,2.13,3.12,2.13,5.36,0,1.63-.42,2.93-1.27,3.88-.85.95-1.98,1.43-3.39,1.43s-2.54-.45-3.35-1.35c-.82-.9-1.23-2.08-1.23-3.56,0-.33.03-.63.08-.9.05-.27.16-.71.33-1.31Z"/>
    <path d="M926.01,60.94l-12.59-17.01-6.21,5.23v11.78l6.3,1.55v3.35h-20.53v-3.35l6.3-1.55V6.97l-6.3-1.55v-3.35h14.23v43.26l17.42-18.73-5.4-1.55v-3.35h17.58v3.35l-5.97,1.55-12.35,12.68,16.27,21.83,4.33,1.39v3.35h-17.91v-3.35l4.82-1.55Z"/>
    <path d="M959.62,62.9c3.11,0,5.61-.61,7.52-1.84,1.91-1.23,2.86-2.99,2.86-5.27,0-1.36-.36-2.51-1.06-3.44-.71-.93-1.62-1.72-2.74-2.37-1.12-.65-2.37-1.21-3.76-1.68-1.39-.46-2.74-.88-4.05-1.27-1.69-.49-3.34-1.06-4.95-1.72-1.61-.65-3.05-1.49-4.33-2.49-1.28-1.01-2.3-2.24-3.07-3.68-.76-1.45-1.15-3.2-1.15-5.28,0-3.92,1.43-7.07,4.29-9.44,2.86-2.37,6.86-3.56,11.98-3.56,4.36,0,7.81.91,10.34,2.74,2.54,1.83,3.8,4.32,3.8,7.48,0,1.75-.38,3.11-1.14,4.09-.76.98-1.85,1.47-3.27,1.47-1.25,0-2.29-.38-3.11-1.14-.82-.76-1.23-1.75-1.23-2.94,0-1.04.27-1.98.82-2.82.54-.84,1.25-1.46,2.13-1.84-.82-1.15-1.87-1.98-3.15-2.49-1.28-.52-2.93-.78-4.95-.78-6.54,0-9.81,2.32-9.81,6.95,0,1.25.22,2.29.65,3.11.44.82,1.09,1.53,1.96,2.13.87.6,1.95,1.13,3.23,1.59,1.28.47,2.77.97,4.46,1.51,1.85.6,3.68,1.23,5.48,1.88,1.8.65,3.42,1.47,4.87,2.45,1.44.98,2.62,2.21,3.52,3.68.9,1.47,1.35,3.3,1.35,5.48s-.44,4.01-1.31,5.64c-.87,1.64-2.1,3.01-3.68,4.13-1.58,1.12-3.46,1.98-5.64,2.58-2.18.6-4.58.9-7.2.9-4.85,0-8.74-.97-11.65-2.9-2.92-1.93-4.38-4.59-4.38-7.97,0-1.75.4-3.12,1.19-4.13.79-1.01,1.92-1.51,3.39-1.51,1.31,0,2.41.38,3.31,1.15.9.77,1.35,1.77,1.35,3.03,0,1.04-.29,2.02-.86,2.94-.57.93-1.27,1.61-2.09,2.04.71,1.09,1.98,1.96,3.8,2.62,1.83.65,3.91.98,6.26.98Z"/>
  </g>
</svg>