<?xml version="1.0" encoding="iso-8859-1"?>
<!-- Generator: Adobe Illustrator 29.8.5, SVG Export Plug-In . SVG Version: 9.03 Build 0)  -->
<svg version="1.1" xmlns="http://www.w3.org/2000/svg" xmlns:xlink="http://www.w3.org/1999/xlink" x="0px" y="0px"
	 viewBox="0 0 175.272 175.272" style="enable-background:new 0 0 175.272 175.272;" xml:space="preserve">
<g id="Wind_x5F_forecast_x5F_icon">
	<g>
		<g>
			<path style="fill:#DDD5C4;" d="M140.775,7c15.186,0,27.497,12.311,27.497,27.497v106.278c0,15.186-12.311,27.497-27.497,27.497
				H34.497C19.311,168.272,7,155.961,7,140.775V34.497C7,19.311,19.311,7,34.497,7H140.775 M140.775,0H34.497
				C15.475,0,0,15.475,0,34.497v106.278c0,19.022,15.475,34.497,34.497,34.497h106.278c19.022,0,34.497-15.475,34.497-34.497V34.497
				C175.272,15.475,159.797,0,140.775,0L140.775,0z"/>
		</g>
		<g>
			<g>
				<g>
					<g>
						<path style="fill:#DDD5C4;" d="M82.886,64.605c-0.492,0-0.99-0.132-1.439-0.411L34.412,35.089
							c-1.287-0.797-1.684-2.486-0.888-3.773c0.797-1.286,2.484-1.686,3.772-0.887L84.33,59.535
							c1.287,0.797,1.684,2.486,0.888,3.773C84.7,64.145,83.804,64.605,82.886,64.605z"/>
					</g>
				</g>
				<g>
					<g>
						<path style="fill:#DDD5C4;" d="M79.599,86.066c-0.138,0-0.278-0.011-0.419-0.032c-1.496-0.229-2.523-1.628-2.293-3.124
							l3.293-21.461c0.229-1.494,1.629-2.521,3.124-2.292c1.496,0.229,2.523,1.628,2.293,3.124l-3.293,21.461
							C82.096,85.096,80.929,86.066,79.599,86.066z"/>
					</g>
				</g>
				<g>
					<g>
						<path style="fill:#DDD5C4;" d="M66.806,78.149c-0.138,0-0.278-0.011-0.419-0.032c-1.496-0.229-2.523-1.628-2.293-3.124
							l3.293-21.46c0.229-1.494,1.632-2.521,3.124-2.292c1.496,0.229,2.523,1.628,2.293,3.124l-3.293,21.46
							C69.303,77.179,68.136,78.149,66.806,78.149z"/>
					</g>
				</g>
			</g>
			<g>
				<g>
					<g>
						<path style="fill:#DDD5C4;" d="M137.767,68.428c-0.492,0-0.99-0.132-1.439-0.411L89.294,38.911
							c-1.287-0.797-1.684-2.486-0.888-3.773c0.796-1.286,2.484-1.684,3.772-0.887l47.035,29.106
							c1.287,0.797,1.684,2.486,0.888,3.773C139.582,67.967,138.685,68.428,137.767,68.428z"/>
					</g>
				</g>
				<g>
					<g>
						<path style="fill:#DDD5C4;" d="M134.48,89.889c-0.138,0-0.278-0.011-0.419-0.032c-1.496-0.229-2.523-1.628-2.293-3.124
							l3.294-21.461c0.229-1.494,1.629-2.519,3.124-2.292c1.496,0.229,2.523,1.628,2.293,3.124l-3.294,21.461
							C136.977,88.919,135.809,89.889,134.48,89.889z"/>
					</g>
				</g>
				<g>
					<g>
						<path style="fill:#DDD5C4;" d="M121.687,81.972c-0.138,0-0.278-0.011-0.419-0.032c-1.496-0.229-2.523-1.628-2.293-3.124
							l3.294-21.461c0.229-1.494,1.632-2.519,3.124-2.292c1.496,0.229,2.523,1.628,2.293,3.124l-3.294,21.461
							C124.184,81.003,123.017,81.972,121.687,81.972z"/>
					</g>
				</g>
			</g>
			<g>
				<g>
					<g>
						<path style="fill:#DDD5C4;" d="M109.143,123.794c-0.492,0-0.99-0.132-1.439-0.409L60.67,94.278
							c-1.287-0.797-1.684-2.486-0.888-3.773c0.796-1.286,2.485-1.683,3.772-0.888l47.034,29.106
							c1.287,0.797,1.684,2.486,0.888,3.773C110.957,123.333,110.061,123.794,109.143,123.794z"/>
					</g>
				</g>
				<g>
					<g>
						<path style="fill:#DDD5C4;" d="M105.856,145.255c-0.138,0-0.278-0.011-0.419-0.032c-1.496-0.229-2.523-1.628-2.293-3.124
							l3.293-21.461c0.229-1.494,1.63-2.522,3.124-2.292c1.496,0.229,2.523,1.628,2.293,3.124l-3.293,21.461
							C108.353,144.285,107.186,145.255,105.856,145.255z"/>
					</g>
				</g>
				<g>
					<g>
						<path style="fill:#DDD5C4;" d="M93.063,137.338c-0.138,0-0.278-0.011-0.419-0.032c-1.496-0.229-2.523-1.628-2.293-3.124
							l3.294-21.461c0.229-1.494,1.632-2.522,3.124-2.292c1.496,0.229,2.523,1.628,2.293,3.124l-3.294,21.461
							C95.56,136.368,94.393,137.338,93.063,137.338z"/>
					</g>
				</g>
			</g>
		</g>
	</g>
</g>
<g id="Layer_1">
</g>
</svg>
