<?xml version="1.0" encoding="iso-8859-1"?>
<!-- Generator: Adobe Illustrator 29.8.5, SVG Export Plug-In . SVG Version: 9.03 Build 0)  -->
<svg version="1.1" xmlns="http://www.w3.org/2000/svg" xmlns:xlink="http://www.w3.org/1999/xlink" x="0px" y="0px"
	 viewBox="0 0 175.272 175.272" style="enable-background:new 0 0 175.272 175.272;" xml:space="preserve">
<g id="Live_x5F_tide_x5F_icon">
	<g>
		<g>
			<path style="fill:#DDD5C4;" d="M140.775,7c15.186,0,27.497,12.311,27.497,27.497v106.278c0,15.186-12.311,27.497-27.497,27.497
				H34.497C19.311,168.272,7,155.961,7,140.775V34.497C7,19.311,19.311,7,34.497,7H140.775 M140.775,0H34.497
				C15.475,0,0,15.475,0,34.497v106.278c0,19.022,15.475,34.497,34.497,34.497h106.278c19.022,0,34.497-15.475,34.497-34.497V34.497
				C175.272,15.475,159.797,0,140.775,0L140.775,0z"/>
		</g>
		<g>
			<g>
				<g>
					<path style="fill:#DDD5C4;" d="M146.079,62.447c-6.472,0-12.809-2.52-18.471-7.32c-5.663,4.799-12.001,7.32-18.472,7.32
						c-7.414,0-14.531-3.233-20.744-9.386c-6.212,6.153-13.329,9.386-20.744,9.386c-6.472,0-12.809-2.52-18.471-7.32
						c-5.663,4.799-12.001,7.32-18.472,7.32c-1.648,0-2.984-1.336-2.984-2.984s1.336-2.984,2.984-2.984
						c5.688,0,11.354-2.601,16.386-7.521l2.086-2.038l2.086,2.04c5.031,4.919,10.697,7.519,16.385,7.519
						c6.55,0,12.945-3.368,18.494-9.74l2.25-2.583l2.25,2.583c5.549,6.371,11.944,9.74,18.494,9.74
						c5.688,0,11.354-2.601,16.386-7.521l2.086-2.038l2.086,2.04c5.031,4.919,10.697,7.519,16.385,7.519
						c1.648,0,2.984,1.336,2.984,2.984S147.726,62.447,146.079,62.447z"/>
				</g>
			</g>
			<g>
				<g>
					<path style="fill:#DDD5C4;" d="M146.079,97.394c-6.472,0-12.809-2.52-18.471-7.32c-5.663,4.799-12.001,7.32-18.472,7.32
						c-7.414,0-14.531-3.233-20.744-9.386c-6.212,6.153-13.329,9.386-20.744,9.386c-6.472,0-12.809-2.52-18.471-7.32
						c-5.663,4.799-12.001,7.32-18.472,7.32c-1.648,0-2.984-1.336-2.984-2.984c0-1.648,1.336-2.984,2.984-2.984
						c5.688,0,11.354-2.601,16.386-7.521l2.086-2.038l2.086,2.04c5.031,4.919,10.697,7.519,16.385,7.519
						c6.55,0,12.945-3.368,18.494-9.74l2.25-2.583l2.25,2.583c5.549,6.371,11.944,9.74,18.494,9.74
						c5.688,0,11.354-2.601,16.386-7.521l2.086-2.038l2.086,2.04c5.031,4.919,10.697,7.519,16.385,7.519
						c1.648,0,2.984,1.336,2.984,2.984C149.062,96.058,147.726,97.394,146.079,97.394z"/>
				</g>
			</g>
			<g>
				<g>
					<path style="fill:#DDD5C4;" d="M146.079,133.115c-6.473,0-12.809-2.52-18.471-7.318c-5.663,4.798-12.001,7.318-18.472,7.318
						c-7.416,0-14.533-3.231-20.744-9.386c-6.211,6.154-13.328,9.386-20.744,9.386c-6.473,0-12.809-2.52-18.471-7.318
						c-5.663,4.798-12.001,7.318-18.472,7.318c-1.648,0-2.984-1.336-2.984-2.984c0-1.648,1.336-2.984,2.984-2.984
						c5.688,0,11.355-2.599,16.386-7.519l2.086-2.038l2.086,2.04c5.031,4.919,10.695,7.518,16.385,7.518
						c6.55,0,12.946-3.368,18.493-9.74l2.251-2.585l2.251,2.585c5.547,6.371,11.942,9.74,18.493,9.74
						c5.688,0,11.355-2.599,16.386-7.519l2.086-2.038l2.086,2.04c5.031,4.919,10.695,7.518,16.385,7.518
						c1.648,0,2.984,1.336,2.984,2.984C149.062,131.779,147.726,133.115,146.079,133.115z"/>
				</g>
			</g>
		</g>
	</g>
</g>
<g id="Layer_1">
</g>
</svg>
