<?xml version="1.0" encoding="iso-8859-1"?>
<!-- Generator: Adobe Illustrator 29.8.5, SVG Export Plug-In . SVG Version: 9.03 Build 0)  -->
<svg version="1.1" xmlns="http://www.w3.org/2000/svg" xmlns:xlink="http://www.w3.org/1999/xlink" x="0px" y="0px"
	 viewBox="0 0 175.272 175.272" style="enable-background:new 0 0 175.272 175.272;" xml:space="preserve">
<g id="Weather_x5F_forecast_x5F_icon">
	<g>
		<g>
			<path style="fill:#DDD5C4;" d="M140.775,7c15.186,0,27.497,12.311,27.497,27.497v106.278c0,15.186-12.311,27.497-27.497,27.497
				H34.497C19.311,168.272,7,155.961,7,140.775V34.497C7,19.311,19.311,7,34.497,7H140.775 M140.775,0H34.497
				C15.475,0,0,15.475,0,34.497v106.278c0,19.022,15.475,34.497,34.497,34.497h106.278c19.022,0,34.497-15.475,34.497-34.497V34.497
				C175.272,15.475,159.797,0,140.775,0L140.775,0z"/>
		</g>
		<g>
			<g>
				<path style="fill:#DDD5C4;" d="M123.877,126.082H53.395c-13.362,0-24.232-10.87-24.232-24.232s10.87-24.232,24.232-24.232
					c2.115,0,4.19,0.268,6.202,0.801c2.882-11.492,13.229-19.766,25.413-19.766c2.675,0,5.294,0.398,7.814,1.186
					c4.008-4.224,9.514-6.607,15.413-6.607c11.74,0,21.29,9.552,21.29,21.292c0,1.241-0.108,2.474-0.321,3.687
					c10.842,2.451,18.902,12.227,18.902,23.639C148.109,115.212,137.239,126.082,123.877,126.082z M53.395,83.586
					c-10.07,0-18.264,8.194-18.264,18.264s8.194,18.264,18.264,18.264h70.482c10.07,0,18.264-8.194,18.264-18.264
					c0-9.504-7.414-17.504-16.88-18.212l-3.899-0.291l1.311-3.685c0.587-1.652,0.886-3.382,0.886-5.139
					c0-8.45-6.874-15.324-15.323-15.324c-4.777,0-9.198,2.174-12.127,5.963l-1.386,1.793l-2.098-0.854
					c-2.419-0.983-4.981-1.482-7.615-1.482c-10.379,0-19.032,7.771-20.126,18.076l-0.431,4.056l-3.736-1.638
					C58.404,84.1,55.94,83.586,53.395,83.586z"/>
			</g>
		</g>
		<g>
			<g>
				<path style="fill:#DDD5C4;" d="M42.414,82.687c-2.727-7.216-2.481-15.065,0.695-22.096c3.175-7.033,8.897-12.407,16.115-15.135
					c14.903-5.628,31.601,1.914,37.23,16.812l-5.583,2.11c-4.465-11.82-17.721-17.802-29.538-13.338
					C49.512,55.507,43.53,68.757,47.997,80.577L42.414,82.687z"/>
			</g>
		</g>
	</g>
</g>
<g id="Layer_1">
</g>
</svg>
